<svg width="130" height="130" viewBox="0 0 70 70" fill="none" xmlns="http://www.w3.org/2000/svg">
<path fill-rule="evenodd" clip-rule="evenodd" d="M15.1945 1.09246C28.3578 -0.364152 41.6421 -0.364152 54.8055 1.09246C62.0938 1.90797 67.9738 7.63779 68.8289 14.9392C70.3904 28.2676 70.3904 41.7322 68.8289 55.0606C67.9738 62.362 62.0938 68.0918 54.8055 68.9073C41.6422 70.3642 28.3578 70.3642 15.1945 68.9073C7.9062 68.0918 2.02623 62.362 1.17104 55.0606C-0.390346 41.7336 -0.390346 28.2704 1.17104 14.9434C1.6036 11.3962 3.22341 8.09883 5.76793 5.58561C8.31246 3.07238 11.6326 1.49063 15.1902 1.0967M35 13.7923C35.8463 13.7923 36.6579 14.128 37.2564 14.7254C37.8548 15.3228 38.191 16.1331 38.191 16.9779V31.8143H53.0526C53.8989 31.8143 54.7106 32.1499 55.309 32.7473C55.9074 33.3448 56.2436 34.155 56.2436 34.9999C56.2436 35.8448 55.9074 36.655 55.309 37.2525C54.7106 37.8499 53.8989 38.1855 53.0526 38.1855H38.191V53.0219C38.191 53.8667 37.8548 54.677 37.2564 55.2744C36.6579 55.8718 35.8463 56.2074 35 56.2074C34.1537 56.2074 33.342 55.8718 32.7436 55.2744C32.1452 54.677 31.809 53.8667 31.809 53.0219V38.1855H16.9474C16.1011 38.1855 15.2894 37.8499 14.691 37.2525C14.0926 36.655 13.7564 35.8448 13.7564 34.9999C13.7564 34.155 14.0926 33.3448 14.691 32.7473C15.2894 32.1499 16.1011 31.8143 16.9474 31.8143H31.809V16.9779C31.809 16.1331 32.1452 15.3228 32.7436 14.7254C33.342 14.128 34.1537 13.7923 35 13.7923Z" fill="url(#paint0_linear_8_275)"/>
<defs>
<linearGradient id="paint0_linear_8_275" x1="35" y1="0" x2="35" y2="70" gradientUnits="userSpaceOnUse">
<stop stop-color="#9208C2"/>
<stop offset="0.595" stop-color="#388FFA"/>
</linearGradient>
</defs>
</svg>
