<svg width="19" height="19" viewBox="0 0 19 19" fill="none" xmlns="http://www.w3.org/2000/svg">
<path fill-rule="evenodd" clip-rule="evenodd" d="M4.12421 0.296524C7.69713 -0.0988414 11.3029 -0.0988414 14.8758 0.296524C16.854 0.517877 18.45 2.07311 18.6821 4.05492C19.106 7.67263 19.106 11.3273 18.6821 14.945C18.45 16.9268 16.854 18.4821 14.8758 18.7034C11.3029 19.0989 7.69712 19.0989 4.12421 18.7034C2.14597 18.4821 0.549977 16.9268 0.317854 14.945C-0.105951 11.3277 -0.105951 7.67339 0.317854 4.05607C0.435264 3.09326 0.874925 2.19825 1.56558 1.51609C2.25624 0.833932 3.15741 0.4046 4.12306 0.297677M9.5 3.74364C9.72971 3.74364 9.95001 3.83474 10.1124 3.99689C10.2749 4.15905 10.3661 4.37898 10.3661 4.6083V8.63531H14.4C14.6297 8.63531 14.85 8.72641 15.0124 8.88857C15.1749 9.05072 15.2661 9.27065 15.2661 9.49997C15.2661 9.72929 15.1749 9.94922 15.0124 10.1114C14.85 10.2735 14.6297 10.3646 14.4 10.3646H10.3661V14.3916C10.3661 14.621 10.2749 14.8409 10.1124 15.0031C9.95001 15.1652 9.72971 15.2563 9.5 15.2563C9.27029 15.2563 9.04998 15.1652 8.88755 15.0031C8.72512 14.8409 8.63387 14.621 8.63387 14.3916V10.3646H4.60001C4.37029 10.3646 4.14999 10.2735 3.98756 10.1114C3.82513 9.94922 3.73387 9.72929 3.73387 9.49997C3.73387 9.27065 3.82513 9.05072 3.98756 8.88857C4.14999 8.72641 4.37029 8.63531 4.60001 8.63531H8.63387V4.6083C8.63387 4.37898 8.72512 4.15905 8.88755 3.99689C9.04998 3.83474 9.27029 3.74364 9.5 3.74364Z" fill="url(#paint0_linear_8_275)"/>
<defs>
<linearGradient id="paint0_linear_8_275" x1="9.5" y1="0" x2="9.5" y2="19" gradientUnits="userSpaceOnUse">
<stop stop-color="#9208C2"/>
<stop offset="0.595" stop-color="#388FFA"/>
</linearGradient>
</defs>
</svg>
