<svg width="49" height="35" viewBox="0 0 49 35" fill="none" xmlns="http://www.w3.org/2000/svg">
<path d="M3.5 0H21C21.9283 0 22.8185 0.368749 23.4749 1.02513C24.1313 1.6815 24.5 2.57174 24.5 3.5C24.5 4.42826 24.1313 5.3185 23.4749 5.97487C22.8185 6.63125 21.9283 7 21 7H3.5C2.57174 7 1.6815 6.63125 1.02513 5.97487C0.368749 5.3185 0 4.42826 0 3.5C0 2.57174 0.368749 1.6815 1.02513 1.02513C1.6815 0.368749 2.57174 0 3.5 0ZM28 28H45.5C46.4283 28 47.3185 28.3687 47.9749 29.0251C48.6312 29.6815 49 30.5717 49 31.5C49 32.4283 48.6312 33.3185 47.9749 33.9749C47.3185 34.6312 46.4283 35 45.5 35H28C27.0717 35 26.1815 34.6312 25.5251 33.9749C24.8687 33.3185 24.5 32.4283 24.5 31.5C24.5 30.5717 24.8687 29.6815 25.5251 29.0251C26.1815 28.3687 27.0717 28 28 28ZM3.5 14H45.5C46.4283 14 47.3185 14.3687 47.9749 15.0251C48.6312 15.6815 49 16.5717 49 17.5C49 18.4283 48.6312 19.3185 47.9749 19.9749C47.3185 20.6313 46.4283 21 45.5 21H3.5C2.57174 21 1.6815 20.6313 1.02513 19.9749C0.368749 19.3185 0 18.4283 0 17.5C0 16.5717 0.368749 15.6815 1.02513 15.0251C1.6815 14.3687 2.57174 14 3.5 14Z" fill="white"/>
</svg>
