<svg width="12" height="12" viewBox="0 0 12 12" fill="none" xmlns="http://www.w3.org/2000/svg">
<path d="M6.49505 1.77L2.15505 6.12L1.71505 6.56L1.63505 6.64L0.115053 9.8C0.013072 10.0029 -0.0223702 10.2327 0.0137626 10.4569C0.0498954 10.6811 0.155765 10.8882 0.316326 11.0487C0.476886 11.2093 0.683969 11.3152 0.908142 11.3513C1.13232 11.3874 1.36218 11.352 1.56505 11.25L4.70505 9.72L5.23505 9.19L5.66505 8.76L10.0051 4.4L10.4551 3.96L10.7051 3.71C11.113 3.30129 11.3421 2.74744 11.3421 2.17C11.3421 1.59256 11.113 1.03871 10.7051 0.630002C10.2983 0.226175 9.74824 -0.000308794 9.17505 1.99688e-06C8.59883 -0.000775608 8.04551 0.22558 7.63505 0.630002L6.93505 1.32L6.48505 1.76L6.49505 1.77ZM1.44505 9.9L2.62505 7.47L3.87505 8.73L1.44505 9.9ZM3.44505 6.54L7.34505 2.63L8.64505 3.94L4.78505 7.9L3.44505 6.54ZM9.12505 1.23C9.2459 1.22959 9.36561 1.25326 9.47721 1.29961C9.58881 1.34597 9.69006 1.41409 9.77505 1.5C9.94787 1.67419 10.0448 1.90963 10.0448 2.155C10.0448 2.40038 9.94787 2.63581 9.77505 2.81L9.52505 3.05L8.22505 1.75L8.47505 1.5C8.5653 1.41113 8.67366 1.34279 8.79275 1.29964C8.91183 1.25649 9.03882 1.23956 9.16505 1.25L9.12505 1.23Z" fill="url(#paint0_linear_120_177)"/>
<defs>
<linearGradient id="paint0_linear_120_177" x1="5.67103" y1="0" x2="5.67103" y2="11.3651" gradientUnits="userSpaceOnUse">
<stop stop-color="#9208C2"/>
<stop offset="0.595" stop-color="#388FFA"/>
</linearGradient>
</defs>
</svg>
