<svg width="91" height="71" viewBox="0 0 91 71" fill="none" xmlns="http://www.w3.org/2000/svg">
<path d="M26 11.2955V32.2727H57.1533L46.4527 21.6449C45.8689 21.0348 45.5483 20.2223 45.5591 19.3807C45.57 18.5392 45.9114 17.7351 46.5107 17.14C47.11 16.5449 47.9198 16.2058 48.7672 16.1951C49.6147 16.1843 50.4329 16.5027 51.0473 17.0824L67.2973 33.2187C67.9064 33.8239 68.2485 34.6444 68.2485 35.5C68.2485 36.3556 67.9064 37.1761 67.2973 37.7813L51.0473 53.9176C50.4329 54.4973 49.6147 54.8157 48.7672 54.805C47.9198 54.7942 47.11 54.4551 46.5107 53.86C45.9114 53.2649 45.57 52.4608 45.5591 51.6193C45.5483 50.7777 45.8689 49.9652 46.4527 49.3551L57.1533 38.7273H26V59.7045C26.0032 62.6993 27.2027 65.5705 29.3352 67.6881C31.4677 69.8057 34.3592 70.9968 37.375 71H79.625C82.6408 70.9968 85.5323 69.8057 87.6648 67.6881C89.7973 65.5705 90.9968 62.6993 91 59.7045V11.2955C90.9968 8.3007 89.7973 5.42952 87.6648 3.3119C85.5323 1.19429 82.6408 0.00320352 79.625 0H37.375C34.3592 0.00320352 31.4677 1.19429 29.3352 3.3119C27.2027 5.42952 26.0032 8.3007 26 11.2955ZM3.25 32.2727C2.38805 32.2727 1.5614 32.6127 0.951903 33.218C0.34241 33.8232 0 34.6441 0 35.5C0 36.3559 0.34241 37.1768 0.951903 37.782C1.5614 38.3873 2.38805 38.7273 3.25 38.7273H26V32.2727H3.25Z" fill="white"/>
</svg>
