<svg width="70" height="16" viewBox="0 0 70 16" fill="none" xmlns="http://www.w3.org/2000/svg">
<path d="M0.798 11.196C0.620667 11.196 0.532 11.1073 0.532 10.93C0.532 10.8833 0.546 10.832 0.574 10.776C0.611333 10.7107 0.648667 10.636 0.686 10.552C0.826 10.272 0.961333 9.99667 1.092 9.726C1.22267 9.45533 1.36267 9.15667 1.512 8.83C1.67067 8.494 1.848 8.10667 2.044 7.668C2.24933 7.22933 2.492 6.702 2.772 6.086C3.08933 5.40467 3.38333 4.79333 3.654 4.252C3.92467 3.71067 4.18133 3.22533 4.424 2.796C4.21867 2.86133 4.018 2.93133 3.822 3.006C3.63533 3.07133 3.49067 3.12733 3.388 3.174C3.276 3.23 3.20133 3.26733 3.164 3.286C3.136 3.29533 3.10333 3.3 3.066 3.3C2.93533 3.3 2.87 3.23 2.87 3.09C2.87 3.01533 2.92133 2.94067 3.024 2.866C3.332 2.67933 3.91067 2.46933 4.76 2.236C4.86267 2.068 4.96067 1.91867 5.054 1.788C5.10067 1.732 5.15667 1.69467 5.222 1.676C5.29667 1.65733 5.35733 1.648 5.404 1.648C5.488 1.648 5.53 1.68533 5.53 1.76C5.53 1.83467 5.49733 1.93267 5.432 2.054C6.59867 1.774 7.55067 1.634 8.288 1.634C10.024 1.634 10.892 2.14733 10.892 3.174C10.892 3.706 10.7473 4.17267 10.458 4.574C10.1687 4.97533 9.77667 5.32533 9.282 5.624C8.79667 5.92267 8.25533 6.184 7.658 6.408C6.202 6.93067 4.93733 7.192 3.864 7.192C3.724 7.192 3.654 7.10333 3.654 6.926C3.654 6.814 3.72867 6.758 3.878 6.758C4.93267 6.758 6.15067 6.506 7.532 6.002C8.08267 5.79667 8.57267 5.554 9.002 5.274C9.43133 4.98467 9.772 4.66733 10.024 4.322C10.276 3.96733 10.402 3.60333 10.402 3.23C10.402 2.46467 9.702 2.082 8.302 2.082C7.882 2.082 7.406 2.12867 6.874 2.222C6.342 2.306 5.74933 2.43667 5.096 2.614C4.816 3.09933 4.522 3.63133 4.214 4.21C3.91533 4.77933 3.612 5.40467 3.304 6.086L1.68 9.642C1.60533 9.80067 1.512 10.0013 1.4 10.244C1.288 10.4773 1.162 10.7293 1.022 11C0.956667 11.1307 0.882 11.196 0.798 11.196ZM10.7574 10.93C10.0014 10.93 9.62336 10.5053 9.62336 9.656C9.62336 9.264 9.71669 8.85333 9.90336 8.424C10.09 7.99467 10.3374 7.598 10.6454 7.234C10.9534 6.86067 11.294 6.55733 11.6674 6.324C12.05 6.09067 12.4374 5.974 12.8294 5.974C13.1747 5.974 13.4267 6.10467 13.5854 6.366C13.744 6.62733 13.8234 6.91667 13.8234 7.234C13.8234 7.654 13.7394 8.08333 13.5714 8.522C13.4034 8.95133 13.1747 9.348 12.8854 9.712C12.596 10.076 12.2694 10.37 11.9054 10.594C11.5414 10.818 11.1587 10.93 10.7574 10.93ZM10.7434 10.482C10.7994 10.482 10.832 10.4773 10.8414 10.468C11.2054 10.4213 11.5414 10.2907 11.8494 10.076C12.1574 9.86133 12.4234 9.59533 12.6474 9.278C12.8807 8.95133 13.058 8.60133 13.1794 8.228C13.3007 7.85467 13.3614 7.486 13.3614 7.122C13.3614 6.90733 13.3007 6.73933 13.1794 6.618C13.058 6.49667 12.904 6.436 12.7174 6.436C12.4467 6.436 12.1574 6.548 11.8494 6.772C11.5507 6.996 11.266 7.28067 10.9954 7.626C10.734 7.97133 10.5194 8.33533 10.3514 8.718C10.1834 9.09133 10.0994 9.42733 10.0994 9.726C10.0994 10.23 10.314 10.482 10.7434 10.482ZM20.0815 11.28C19.8481 11.28 19.6661 11.1867 19.5355 11C19.4048 10.8133 19.3395 10.58 19.3395 10.3C19.3395 10.2253 19.3441 10.1133 19.3535 9.964C19.3628 9.80533 19.3721 9.642 19.3815 9.474C19.4001 9.29667 19.4141 9.14267 19.4235 9.012C19.4328 8.872 19.4421 8.788 19.4515 8.76L19.4375 8.704C19.3535 8.82533 19.2368 8.984 19.0875 9.18C18.9475 9.376 18.7981 9.57667 18.6395 9.782C18.4901 9.978 18.3548 10.1507 18.2335 10.3C18.0375 10.5333 17.8228 10.7153 17.5895 10.846C17.3561 10.9767 17.1415 11.042 16.9455 11.042C16.7121 11.042 16.5161 10.9253 16.3575 10.692C16.1988 10.4493 16.1195 10.104 16.1195 9.656C16.1195 9.22667 16.1895 8.746 16.3295 8.214L15.8955 8.718C15.8301 8.78333 15.7741 8.83933 15.7275 8.886C15.6808 8.92333 15.6341 8.942 15.5875 8.942C15.5408 8.942 15.4941 8.92333 15.4475 8.886C15.4101 8.83933 15.3915 8.78333 15.3915 8.718C15.3915 8.65267 15.4148 8.59667 15.4615 8.55C15.5548 8.44733 15.6621 8.31667 15.7835 8.158C15.9141 7.99 16.0635 7.79867 16.2315 7.584C16.3715 7.388 16.6048 7.024 16.9315 6.492C16.9875 6.39867 17.0621 6.352 17.1555 6.352C17.3141 6.352 17.3935 6.42667 17.3935 6.576C17.3935 6.62267 17.3701 6.688 17.3235 6.772C17.2768 6.84667 17.2115 6.99133 17.1275 7.206C16.9595 7.64467 16.8288 8.07867 16.7355 8.508C16.6421 8.928 16.5955 9.34333 16.5955 9.754C16.5955 10.1087 16.6188 10.342 16.6655 10.454C16.7121 10.5567 16.7821 10.608 16.8755 10.608C17.1741 10.608 17.5335 10.384 17.9535 9.936C18.0748 9.80533 18.2568 9.586 18.4995 9.278C18.7421 8.96067 18.9941 8.592 19.2555 8.172C19.5168 7.74267 19.7221 7.304 19.8715 6.856L20.0815 6.24C20.1095 6.156 20.1701 6.114 20.2635 6.114C20.4315 6.114 20.5155 6.19333 20.5155 6.352C20.5155 6.408 20.4641 6.55733 20.3615 6.8C20.2588 7.03333 20.1561 7.402 20.0535 7.906C19.9881 8.22333 19.9275 8.55933 19.8715 8.914C19.8248 9.26867 19.8015 9.60933 19.8015 9.936C19.8015 10.5613 19.9041 10.874 20.1095 10.874C20.2775 10.874 20.4921 10.7853 20.7535 10.608C21.0148 10.4307 21.2901 10.2067 21.5795 9.936C21.8688 9.66533 22.1301 9.38533 22.3635 9.096C22.5781 8.844 22.7975 8.55467 23.0215 8.228C23.2455 7.90133 23.4321 7.57467 23.5815 7.248C23.7401 6.912 23.8195 6.62267 23.8195 6.38C23.8195 6.13733 23.7541 5.97867 23.6235 5.904C23.6048 5.89467 23.4788 5.876 23.2455 5.848C23.1148 5.82933 23.0495 5.75467 23.0495 5.624C23.0495 5.47467 23.1241 5.4 23.2735 5.4C23.5721 5.4 23.8101 5.484 23.9875 5.652C24.1741 5.82 24.2675 6.04867 24.2675 6.338C24.2675 7.122 23.7448 8.13467 22.6995 9.376C21.6355 10.6453 20.7628 11.28 20.0815 11.28ZM26.512 11.252C26.12 11.252 25.812 11.1167 25.588 10.846C25.364 10.5753 25.252 10.244 25.252 9.852C25.252 9.18 25.476 8.48933 25.924 7.78C26.0453 7.584 26.1853 7.39267 26.344 7.206C26.5026 7.01 26.6753 6.82333 26.862 6.646C27.142 6.37533 27.436 6.15133 27.744 5.974C28.052 5.79667 28.3506 5.708 28.64 5.708C29.116 5.708 29.354 5.932 29.354 6.38C29.354 6.94 29.0273 7.44867 28.374 7.906C27.7673 8.31667 27.17 8.522 26.582 8.522C26.4793 8.522 26.386 8.51733 26.302 8.508C26.2273 8.48933 26.1573 8.47067 26.092 8.452C25.9986 8.62933 25.9146 8.858 25.84 9.138C25.7653 9.418 25.728 9.66067 25.728 9.866C25.728 10.482 25.9986 10.79 26.54 10.79C26.9786 10.79 27.394 10.7153 27.786 10.566C28.178 10.4073 28.6446 10.1133 29.186 9.684C29.522 9.42267 29.774 9.21267 29.942 9.054C30.11 8.89533 30.292 8.72733 30.488 8.55C30.544 8.51267 30.5953 8.494 30.642 8.494C30.6886 8.494 30.7353 8.508 30.782 8.536C30.8286 8.564 30.852 8.606 30.852 8.662C30.852 8.76467 30.7586 8.90933 30.572 9.096C30.4133 9.24533 30.2453 9.404 30.068 9.572C29.8906 9.73067 29.6106 9.95467 29.228 10.244C28.8173 10.5613 28.3693 10.8087 27.884 10.986C27.3986 11.1633 26.9413 11.252 26.512 11.252ZM26.498 8.074C26.7966 8.074 27.0813 8.02733 27.352 7.934C27.6226 7.84067 27.8793 7.70533 28.122 7.528C28.6633 7.12667 28.934 6.74867 28.934 6.394C28.934 6.23533 28.836 6.156 28.64 6.156C28.2666 6.156 27.8326 6.38467 27.338 6.842C27.0953 7.066 26.8946 7.27133 26.736 7.458C26.5866 7.63533 26.4466 7.83133 26.316 8.046C26.372 8.06467 26.4326 8.074 26.498 8.074ZM30.3838 11.35C30.2345 11.35 30.1598 11.2893 30.1598 11.168C30.1598 11.112 30.1738 11.056 30.2018 11C30.2392 10.944 30.2672 10.8973 30.2858 10.86L31.5598 8.284C32.1012 7.18267 32.3718 6.57133 32.3718 6.45C32.3718 6.31933 32.4372 6.254 32.5678 6.254C32.7452 6.254 32.8338 6.34267 32.8338 6.52C32.8338 6.61333 32.7918 6.76267 32.7078 6.968C32.6238 7.17333 32.5165 7.41133 32.3858 7.682C32.1618 8.16733 31.9752 8.54067 31.8258 8.802C32.1058 8.47533 32.3905 8.16733 32.6798 7.878C32.9692 7.58867 33.2632 7.31333 33.5618 7.052C34.4485 6.27733 35.1298 5.89 35.6058 5.89C35.9325 5.89 36.0958 6.044 36.0958 6.352C36.0958 6.65067 35.9978 6.8 35.8018 6.8C35.7085 6.8 35.6385 6.72067 35.5918 6.562C35.5638 6.45 35.4985 6.394 35.3958 6.394C35.2372 6.394 34.9292 6.56667 34.4718 6.912C33.9678 7.28533 33.4592 7.72867 32.9458 8.242C32.4418 8.75533 31.9052 9.40867 31.3358 10.202L30.6358 11.182C30.5985 11.2287 30.5612 11.266 30.5238 11.294C30.4958 11.3313 30.4492 11.35 30.3838 11.35ZM37.6119 11.252C37.2199 11.252 36.9119 11.1167 36.6879 10.846C36.4639 10.5753 36.3519 10.244 36.3519 9.852C36.3519 9.18 36.5759 8.48933 37.0239 7.78C37.1452 7.584 37.2852 7.39267 37.4439 7.206C37.6025 7.01 37.7752 6.82333 37.9619 6.646C38.2419 6.37533 38.5359 6.15133 38.8439 5.974C39.1519 5.79667 39.4505 5.708 39.7399 5.708C40.2159 5.708 40.4539 5.932 40.4539 6.38C40.4539 6.94 40.1272 7.44867 39.4739 7.906C38.8672 8.31667 38.2699 8.522 37.6819 8.522C37.5792 8.522 37.4859 8.51733 37.4019 8.508C37.3272 8.48933 37.2572 8.47067 37.1919 8.452C37.0985 8.62933 37.0145 8.858 36.9399 9.138C36.8652 9.418 36.8279 9.66067 36.8279 9.866C36.8279 10.482 37.0985 10.79 37.6399 10.79C38.0785 10.79 38.4939 10.7153 38.8859 10.566C39.2779 10.4073 39.7445 10.1133 40.2859 9.684C40.6219 9.42267 40.8739 9.21267 41.0419 9.054C41.2099 8.89533 41.3919 8.72733 41.5879 8.55C41.6439 8.51267 41.6952 8.494 41.7419 8.494C41.7885 8.494 41.8352 8.508 41.8819 8.536C41.9285 8.564 41.9519 8.606 41.9519 8.662C41.9519 8.76467 41.8585 8.90933 41.6719 9.096C41.5132 9.24533 41.3452 9.404 41.1679 9.572C40.9905 9.73067 40.7105 9.95467 40.3279 10.244C39.9172 10.5613 39.4692 10.8087 38.9839 10.986C38.4985 11.1633 38.0412 11.252 37.6119 11.252ZM37.5979 8.074C37.8965 8.074 38.1812 8.02733 38.4519 7.934C38.7225 7.84067 38.9792 7.70533 39.2219 7.528C39.7632 7.12667 40.0339 6.74867 40.0339 6.394C40.0339 6.23533 39.9359 6.156 39.7399 6.156C39.3665 6.156 38.9325 6.38467 38.4379 6.842C38.1952 7.066 37.9945 7.27133 37.8359 7.458C37.6865 7.63533 37.5465 7.83133 37.4159 8.046C37.4719 8.06467 37.5325 8.074 37.5979 8.074ZM46.4958 12.246C46.4211 12.246 46.3278 12.2087 46.2158 12.134C46.1131 12.0687 46.0338 12.0033 45.9778 11.938C45.8658 11.798 45.7911 11.63 45.7538 11.434C45.7164 11.238 45.6978 11.0233 45.6978 10.79C45.6978 10.594 45.7024 10.384 45.7118 10.16C45.7304 9.92667 45.7584 9.67933 45.7958 9.418C45.5531 9.698 45.2778 9.97333 44.9698 10.244C44.6711 10.5053 44.3631 10.72 44.0458 10.888C43.7378 11.056 43.4438 11.14 43.1638 11.14C42.4638 11.14 42.1138 10.7667 42.1138 10.02C42.1138 9.24533 42.3844 8.49867 42.9258 7.78C43.1964 7.42533 43.5044 7.08467 43.8498 6.758C44.1951 6.43133 44.5591 6.16533 44.9418 5.96C45.3244 5.75467 45.7024 5.652 46.0758 5.652C46.3558 5.652 46.6031 5.75933 46.8178 5.974C46.8364 5.93667 46.8598 5.876 46.8878 5.792C46.9251 5.708 46.9764 5.60067 47.0418 5.47C47.2658 4.98467 47.5131 4.48067 47.7838 3.958C48.0544 3.426 48.2971 2.98733 48.5118 2.642C48.7544 2.25933 48.9831 2.068 49.1978 2.068C49.3471 2.068 49.4218 2.18467 49.4218 2.418C49.4218 2.81933 49.0438 3.75733 48.2878 5.232C48.2411 5.316 48.1571 5.47 48.0358 5.694C47.9238 5.90867 47.7884 6.16067 47.6298 6.45C47.4804 6.73 47.3264 7.01 47.1678 7.29C47.0091 7.57 46.8644 7.822 46.7338 8.046C46.6124 8.26067 46.5238 8.41 46.4678 8.494C46.3651 8.914 46.2858 9.31533 46.2298 9.698C46.1738 10.0713 46.1458 10.4587 46.1458 10.86C46.1458 11.0093 46.1504 11.1447 46.1598 11.266C46.1784 11.3967 46.2158 11.4993 46.2718 11.574C46.3184 11.63 46.3698 11.672 46.4258 11.7C46.4818 11.7373 46.5471 11.77 46.6218 11.798C46.7338 11.826 46.7898 11.8913 46.7898 11.994C46.7898 12.162 46.6918 12.246 46.4958 12.246ZM47.1538 6.394C47.5084 5.78733 47.8211 5.22267 48.0918 4.7C48.3624 4.168 48.5818 3.66867 48.7498 3.202C48.3764 3.68733 48.0638 4.20067 47.8118 4.742C47.5598 5.28333 47.3404 5.834 47.1538 6.394ZM43.0658 10.72C43.3364 10.72 43.6211 10.6313 43.9198 10.454C44.2278 10.2673 44.5171 10.048 44.7878 9.796C45.0304 9.572 45.2544 9.34333 45.4598 9.11C45.6651 8.86733 45.8564 8.62 46.0338 8.368C46.1084 8.04133 46.1924 7.71933 46.2858 7.402C46.3884 7.08467 46.5004 6.76733 46.6218 6.45C46.4724 6.21667 46.2624 6.1 45.9918 6.1C45.7118 6.1 45.3991 6.20733 45.0538 6.422C44.7178 6.62733 44.3911 6.884 44.0738 7.192C43.7658 7.5 43.4998 7.794 43.2758 8.074C42.8091 8.69933 42.5758 9.362 42.5758 10.062C42.5758 10.5007 42.7391 10.72 43.0658 10.72ZM53.1198 12.036C52.9705 12.036 52.8958 11.9613 52.8958 11.812C52.8958 11.7093 52.9285 11.56 52.9938 11.364C52.8352 11.364 52.7558 11.294 52.7558 11.154C52.7558 10.986 52.8912 10.9113 53.1618 10.93C53.5072 10.09 54.3612 8.51267 55.7238 6.198C56.0785 5.59133 56.4472 4.97533 56.8298 4.35C57.2125 3.72467 57.6045 3.09933 58.0058 2.474C56.7458 2.81 56.1578 2.978 56.2418 2.978C56.0925 2.978 56.0178 2.89867 56.0178 2.74C56.0178 2.656 56.0692 2.59067 56.1718 2.544C56.3305 2.46933 56.5918 2.38067 56.9558 2.278C57.3198 2.166 57.7865 2.04 58.3558 1.9C58.4398 1.76933 58.5145 1.648 58.5798 1.536C58.6545 1.424 58.7245 1.326 58.7898 1.242C58.9858 0.980666 59.1258 0.85 59.2098 0.85C59.3592 0.85 59.4338 0.915333 59.4338 1.046C59.4338 1.102 59.3825 1.20467 59.2798 1.354C59.1772 1.50333 59.0792 1.65733 58.9858 1.816C59.2098 1.77867 59.4898 1.732 59.8258 1.676C60.1618 1.61067 60.5772 1.578 61.0718 1.578C62.9292 1.578 63.8578 2.00267 63.8578 2.852C63.8578 3.19733 63.7458 3.51933 63.5218 3.818C63.2978 4.10733 62.9945 4.37333 62.6118 4.616C62.2385 4.85867 61.8232 5.078 61.3658 5.274C60.9085 5.46067 60.4465 5.624 59.9798 5.764C61.3612 6.08133 62.0518 6.73 62.0518 7.71C62.0518 8.22333 61.8978 8.68533 61.5898 9.096C61.2912 9.50667 60.8945 9.86133 60.3998 10.16C59.9052 10.4587 59.3592 10.7013 58.7618 10.888C57.5485 11.2613 56.1345 11.448 54.5198 11.448C54.1838 11.448 53.8385 11.434 53.4838 11.406C53.3905 11.602 53.3438 11.7373 53.3438 11.812C53.3438 11.9613 53.2692 12.036 53.1198 12.036ZM54.6178 11C56.0738 11 57.3758 10.832 58.5238 10.496C59.0558 10.3373 59.5552 10.1227 60.0218 9.852C60.4978 9.58133 60.8805 9.264 61.1698 8.9C61.4685 8.52667 61.6178 8.12533 61.6178 7.696C61.6178 7.108 61.2212 6.66 60.4278 6.352C59.8305 6.128 59.1772 6.016 58.4678 6.016C58.2252 6.016 57.9918 6.03 57.7678 6.058C57.5158 6.12333 57.3758 6.156 57.3478 6.156C57.2078 6.156 57.1378 6.07667 57.1378 5.918C57.1378 5.78733 57.2125 5.722 57.3618 5.722C58.3138 5.722 59.4012 5.50733 60.6238 5.078C61.0718 4.91933 61.5058 4.73267 61.9258 4.518C62.3552 4.294 62.7052 4.04667 62.9758 3.776C63.2558 3.496 63.3958 3.202 63.3958 2.894C63.3958 2.334 62.6212 2.054 61.0718 2.054C60.7078 2.054 60.3252 2.07733 59.9238 2.124C59.5318 2.17067 59.1165 2.24067 58.6778 2.334C57.5672 4.05133 56.5918 5.62867 55.7518 7.066C54.9118 8.50333 54.2165 9.80533 53.6658 10.972C53.7405 10.9813 53.8338 10.9907 53.9458 11C54.0578 11 54.2818 11 54.6178 11ZM63.8895 15.634C63.3202 15.634 63.0355 15.298 63.0355 14.626C63.0355 14.0567 63.1569 13.506 63.3995 12.974C63.4369 12.8807 63.4975 12.834 63.5815 12.834C63.7495 12.834 63.8335 12.9087 63.8335 13.058C63.8335 13.0953 63.8195 13.142 63.7915 13.198C63.7729 13.2633 63.7495 13.3333 63.7215 13.408C63.6562 13.5853 63.6049 13.772 63.5675 13.968C63.5302 14.164 63.5115 14.3693 63.5115 14.584C63.5115 14.8267 63.5442 14.99 63.6095 15.074C63.6749 15.158 63.7589 15.2 63.8615 15.2C64.1042 15.2 64.3889 15.088 64.7155 14.864C65.0515 14.64 65.3969 14.2853 65.7515 13.8C66.0035 13.4547 66.2649 13.044 66.5355 12.568C66.8062 12.092 67.0955 11.546 67.4035 10.93C67.8142 10.118 68.1922 9.292 68.5375 8.452C68.3042 8.75067 68.0615 9.04 67.8095 9.32C67.5575 9.6 67.2869 9.86133 66.9975 10.104C66.2229 10.7667 65.5789 11.098 65.0655 11.098C64.4495 11.098 64.1415 10.7433 64.1415 10.034C64.1415 9.782 64.1882 9.47867 64.2815 9.124C64.3842 8.76933 64.5242 8.36333 64.7015 7.906C64.7295 7.83133 64.7435 7.77067 64.7435 7.724C64.7435 7.668 64.7575 7.612 64.7855 7.556C64.9349 7.22933 65.1822 6.86533 65.5275 6.464C65.6022 6.38 65.6675 6.338 65.7235 6.338C65.8635 6.338 65.9335 6.44067 65.9335 6.646C65.0282 7.98067 64.5755 9.11 64.5755 10.034C64.5755 10.426 64.7295 10.622 65.0375 10.622C65.3829 10.622 65.8635 10.384 66.4795 9.908C66.9182 9.572 67.3242 9.194 67.6975 8.774C68.0709 8.34467 68.4069 7.90133 68.7055 7.444C68.9109 7.136 69.0742 6.86533 69.1955 6.632C69.3262 6.38933 69.4055 6.226 69.4335 6.142C69.4802 6.002 69.5455 5.932 69.6295 5.932C69.8069 5.932 69.8955 6.00667 69.8955 6.156C69.8955 6.23067 69.8582 6.366 69.7835 6.562C69.7182 6.74867 69.6342 6.97267 69.5315 7.234C69.3822 7.61667 69.1675 8.13 68.8875 8.774C68.6075 9.418 68.2575 10.1833 67.8375 11.07C67.3149 12.1713 66.8015 13.072 66.2975 13.772C65.9242 14.304 65.5135 14.7473 65.0655 15.102C64.6269 15.4567 64.2349 15.634 63.8895 15.634Z" fill="white"/>
</svg>
