<svg width="42" height="34" viewBox="0 0 42 34" fill="none" xmlns="http://www.w3.org/2000/svg">
<path d="M38.7748 13.1936L40.3874 14.828L42 13.1936L40.3874 11.5591L38.7748 13.1936ZM0 31.6882C0 32.3013 0.240302 32.8893 0.668049 33.3229C1.0958 33.7564 1.67595 34 2.28087 34C2.8858 34 3.46595 33.7564 3.8937 33.3229C4.32144 32.8893 4.56175 32.3013 4.56175 31.6882H0ZM28.9831 26.3872L40.3874 14.828L37.1623 11.5591L25.7579 23.1182L28.9831 26.3872ZM40.3874 11.5591L28.9831 0L25.7579 3.26892L37.1623 14.828L40.3874 11.5591ZM38.7748 10.8818H15.9661V15.5054H38.7748V10.8818ZM0 27.0645V31.6882H4.56175V27.0645H0ZM15.9661 10.8818C11.7316 10.8818 7.6706 12.5867 4.67637 15.6216C1.68214 18.6564 0 22.7726 0 27.0645H4.56175C4.56175 23.9989 5.76327 21.0587 7.90201 18.891C10.0407 16.7232 12.9415 15.5054 15.9661 15.5054V10.8818Z" fill="url(#paint0_linear_124_19)"/>
<defs>
<linearGradient id="paint0_linear_124_19" x1="21" y1="0" x2="21" y2="34" gradientUnits="userSpaceOnUse">
<stop stop-color="#9208C2"/>
<stop offset="0.595" stop-color="#388FFA"/>
</linearGradient>
</defs>
</svg>
