<svg width="42" height="34" viewBox="0 0 42 34" fill="none" xmlns="http://www.w3.org/2000/svg">
<path d="M3.22515 13.1936L1.61258 14.828L0 13.1936L1.61258 11.5591L3.22515 13.1936ZM42 31.6882C42 32.3013 41.7597 32.8893 41.332 33.3229C40.9042 33.7564 40.3241 34 39.7191 34C39.1142 34 38.5341 33.7564 38.1063 33.3229C37.6786 32.8893 37.4383 32.3013 37.4383 31.6882H42ZM13.0169 26.3872L1.61258 14.828L4.83773 11.5591L16.2421 23.1182L13.0169 26.3872ZM1.61258 11.5591L13.0169 0L16.2421 3.26892L4.83773 14.828L1.61258 11.5591ZM3.22515 10.8818H26.0339V15.5054H3.22515V10.8818ZM42 27.0645V31.6882H37.4383V27.0645H42ZM26.0339 10.8818C30.2684 10.8818 34.3294 12.5867 37.3236 15.6216C40.3179 18.6564 42 22.7726 42 27.0645H37.4383C37.4383 23.9989 36.2367 21.0587 34.098 18.891C31.9593 16.7232 29.0585 15.5054 26.0339 15.5054V10.8818Z" fill="url(#paint0_linear_124_19)"/>
<defs>
<linearGradient id="paint0_linear_124_19" x1="21" y1="0" x2="21" y2="34" gradientUnits="userSpaceOnUse">
<stop stop-color="#9208C2"/>
<stop offset="0.595" stop-color="#388FFA"/>
</linearGradient>
</defs>
</svg>
